GIL01_slow3_RRA_states
nRows=4
nColumns=47

# SIMM Motion File Header:
name GIL01_slow3_RRA_states
datacolumns 47
datarows 4
otherdata 1
range 0.56483000000000017000 0.56633000000000022000
endheader
time	pelvis_tx	pelvis_ty	pelvis_tz	pelvis_tilt	pelvis_list	pelvis_rotation	hip_flexion_r	hip_adduction_r	hip_rotation_r	knee_angle_r	ankle_angle_r	subtalar_angle_r	mtp_angle_r	hip_flexion_l	hip_adduction_l	hip_rotation_l	knee_angle_l	ankle_angle_l	subtalar_angle_l	mtp_angle_l	lumbar_extension	lumbar_bending	lumbar_rotation	pelvis_tx_u	pelvis_ty_u	pelvis_tz_u	pelvis_tilt_u	pelvis_list_u	pelvis_rotation_u	hip_flexion_r_u	hip_adduction_r_u	hip_rotation_r_u	knee_angle_r_u	ankle_angle_r_u	subtalar_angle_r_u	mtp_angle_r_u	hip_flexion_l_u	hip_adduction_l_u	hip_rotation_l_u	knee_angle_l_u	ankle_angle_l_u	subtalar_angle_l_u	mtp_angle_l_u	lumbar_extension_u	lumbar_bending_u	lumbar_rotation_u
      0.56483000000000017000	     -0.77101887169847672000	      0.80425584474629364000	      0.22406008460558008000	     -1.82034819298711640000	     -0.44128779814107588000	      2.02452395502967790000	     27.15062969651151500000	     -4.90177019651955170000	    -11.22384811439259300000	    -21.20672472967804400000	      3.08338566834890140000	      0.00000000000000458553	     -0.00000000000000679091	     -7.80289964664516060000	      4.58221193638331400000	    -10.49194933166339400000	     10.10169380216073000000	      3.20198621052307650000	     -0.00000000000005115147	      0.00000000000015486496	      2.69401694188633160000	     -3.04708953175252350000	     -3.95834810999189650000	      0.47497361568556468000	     -0.05001582018973165600	     -0.03548227702171108400	    -14.02173261223874500000	    -12.11647684756959700000	     10.42522129611142000000	     46.99759905883169600000	     37.72758814048013000000	     33.69870535534452900000	    150.78644435078760000000	    -62.07896122888639900000	      0.00000000000001690610	     -0.00000000000003871873	    -19.91710181614651600000	     -9.15761670749958160000	      8.45088897903480780000	     -2.34727315567003900000	     20.72418411036956000000	     -0.00000000000019647229	      0.00000000000066003635	     11.43140691171043100000	      4.39407155447709120000	    -28.10468244807979600000
      0.56533000000000022000	     -0.77078123329041082000	      0.80423084897969765000	      0.22404234467692197000	     -1.82733798553677770000	     -0.44734460388876329000	      2.02972458444109050000	     27.17401053158409500000	     -4.88288448135865580000	    -11.20689468652126700000	    -21.13127792320681000000	      3.05228137239639840000	      0.00000000000000459404	     -0.00000000000000681034	     -7.81287649051901400000	      4.57763108779988850000	    -10.48772213513463600000	     10.10051292315120400000	      3.21235893639771760000	     -0.00000000000005125235	      0.00000000000015519650	      2.69972906824378890000	     -3.04486946903983610000	     -3.97240889998234530000	      0.47558011877916784000	     -0.04996739816004126800	     -0.03547740788535613800	    -13.93744003181093800000	    -12.11082903139511500000	     10.37733524765519600000	     46.52576308593282300000	     37.81519201399359500000	     34.11482013526708100000	    151.00042250865155000000	    -62.33779994355761300000	      0.00000000000001681254	     -0.00000000000004053659	    -19.99030858711542200000	     -9.16590551399469790000	      8.45756420600816480000	     -2.37603402574637900000	     20.76673696314782800000	     -0.00000000000019804895	      0.00000000000064537911	     11.41708099233783000000	      4.48622832217882280000	    -28.13846447064046400000
      0.56583000000000017000	     -0.77054329147907341000	      0.80420587719200809000	      0.22402460724216758000	     -1.83428563697904480000	     -0.45339870836331581000	      2.03490132800753410000	     27.19715548760011400000	     -4.86395508656668250000	    -11.18973348901349700000	    -21.05572467748944400000	      3.02104830217518220000	      0.00000000000000460232	     -0.00000000000000683032	     -7.82288999096295880000	      4.57304590305832730000	    -10.48349210031707000000	     10.09931798356643600000	      3.22275299212130230000	     -0.00000000000005135040	      0.00000000000015551841	      2.70543400639680080000	     -3.04260326140921760000	     -3.98648655426453620000	      0.47618722486378418000	     -0.04991991296051592100	     -0.03547227192024243100	    -13.85317132666564500000	    -12.10566838111290100000	     10.32967564821738400000	     46.05409572490191300000	     37.90230343483531800000	     34.52976583136115400000	    151.21217847516510000000	    -62.59403569361609200000	      0.00000000000001581064	     -0.00000000000003884239	    -20.06372963380161800000	     -9.17496119187148020000	      8.46224233721566500000	     -2.40350229254500870000	     20.80955780337317400000	     -0.00000000000019074220	      0.00000000000064035952	     11.40265620980343000000	      4.57863711708830580000	    -28.17212527293092400000
      0.56633000000000022000	     -0.77030504596793403000	      0.80418092890478943000	      0.22400687246405765000	     -1.84119116315473000000	     -0.45945035215832297000	      2.04005429648614370000	     27.22006466339566100000	     -4.84498226123917950000	    -11.17236512432353600000	    -20.98006612744348200000	      2.98968778283392920000	      0.00000000000000461012	     -0.00000000000000684973	     -7.83294025504997380000	      4.56845599867383620000	    -10.47926022508947200000	     10.09810964166522000000	      3.23316853683730750000	     -0.00000000000005144449	      0.00000000000015584272	      2.71113170982280360000	     -3.04029079640648360000	     -4.00058099769688270000	      0.47679491587583123000	     -0.04987339951670329700	     -0.03546678163010342400	    -13.76894047589855100000	    -12.10098707758755800000	     10.28223449381869300000	     45.58264546622562100000	     37.98891486487551100000	     34.94348920579188400000	    151.42163791136306000000	    -62.84759434060733000000	      0.00000000000001624901	     -0.00000000000003994949	    -20.13735996518343900000	     -9.18478447369972710000	      8.46492677846562280000	     -2.42964570404133620000	     20.85263463130889900000	     -0.00000000000018674332	      0.00000000000065547219	     11.38814366341032900000	      4.67125890627430170000	    -28.20562068919417000000
